# MagicaVoxel @ Ephtracy

# material
mtllib джунгли 1.mtl
usemtl palette

# normals
vn -1 0 0
vn 1 0 0
vn 0 0 1
vn 0 0 -1
vn 0 -1 0
vn 0 1 0

# texcoords
vt 0.537109 0.5
vt 0.650391 0.5
vt 0.701172 0.5
vt 0.818359 0.5
vt 0.873047 0.5
vt 0.904297 0.5
vt 0.908203 0.5

# verts
v -20 0 20
v -20 0 -20
v -20 4 20
v -20 4 -20
v -17 12 -5
v -17 12 -7
v -17 13 -5
v -17 13 -7
v -16 12 -4
v -16 12 -5
v -16 12 -7
v -16 12 -8
v -16 13 -4
v -16 13 -5
v -16 13 -7
v -16 13 -8
v -16 14 -5
v -16 14 -7
v -15 12 -3
v -15 12 -4
v -15 12 -8
v -15 12 -9
v -15 13 -3
v -15 13 -4
v -15 13 -5
v -15 13 -7
v -15 13 -8
v -15 13 -9
v -15 14 -4
v -15 14 -5
v -15 14 -7
v -15 14 -8
v -14 4 -5
v -14 4 -7
v -14 12 -2
v -14 12 -3
v -14 12 -5
v -14 12 -7
v -14 12 -9
v -14 12 -10
v -14 13 -2
v -14 13 -3
v -14 13 -4
v -14 13 -5
v -14 13 -7
v -14 13 -8
v -14 13 -9
v -14 13 -10
v -14 14 -3
v -14 14 -4
v -14 14 -5
v -14 14 -7
v -14 14 -8
v -14 14 -9
v -14 15 -5
v -14 15 -7
v -13 10 9
v -13 10 1
v -13 12 9
v -13 12 1
v -12 12 -4
v -12 12 -5
v -12 12 -7
v -12 12 -8
v -12 13 -4
v -12 13 -5
v -12 13 -7
v -12 13 -8
v -11 8 11
v -11 8 8
v -11 9 11
v -11 9 8
v -11 12 -5
v -11 12 -7
v -11 13 -5
v -11 13 -7
v -10 4 6
v -10 4 4
v -10 7 9
v -10 7 6
v -10 8 9
v -10 8 8
v -10 8 6
v -10 10 6
v -10 10 4
v 0 16 -5
v 0 16 -16
v 0 18 -5
v 0 18 -16
v 0 21 11
v 0 21 -3
v 0 24 11
v 0 24 -3
v 5 4 6
v 5 4 2
v 5 4 -9
v 5 4 -12
v 5 15 13
v 5 15 9
v 5 16 -9
v 5 16 -12
v 5 17 13
v 5 17 9
v 5 21 6
v 5 21 2
v 7 13 11
v 7 13 6
v 7 14 10
v 7 14 6
v 7 15 11
v 7 15 10
v 10 10 -10
v 10 10 -12
v 10 11 -10
v 10 11 -11
v 10 11 -12
v 11 12 -10
v 11 12 -11
v 11 12 -13
v 11 13 -10
v 11 13 -13
v 12 11 -11
v 12 11 -12
v 12 12 -11
v 12 12 -12
v -15 12 -5
v -15 12 -7
v -15 13 -5
v -15 13 -7
v -14 12 -4
v -14 12 -5
v -14 12 -7
v -14 12 -8
v -14 13 -4
v -14 13 -5
v -14 13 -7
v -14 13 -8
v -12 4 -5
v -12 4 -7
v -12 12 -2
v -12 12 -3
v -12 12 -5
v -12 12 -7
v -12 12 -9
v -12 12 -10
v -12 13 -2
v -12 13 -3
v -12 13 -4
v -12 13 -5
v -12 13 -7
v -12 13 -8
v -12 13 -9
v -12 13 -10
v -12 14 -3
v -12 14 -4
v -12 14 -5
v -12 14 -7
v -12 14 -8
v -12 14 -9
v -12 15 -5
v -12 15 -7
v -11 12 -3
v -11 12 -4
v -11 12 -8
v -11 12 -9
v -11 13 -3
v -11 13 -4
v -11 13 -5
v -11 13 -7
v -11 13 -8
v -11 13 -9
v -11 14 -4
v -11 14 -5
v -11 14 -7
v -11 14 -8
v -10 12 -4
v -10 12 -5
v -10 12 -7
v -10 12 -8
v -10 13 -4
v -10 13 -5
v -10 13 -7
v -10 13 -8
v -10 14 -5
v -10 14 -7
v -9 7 9
v -9 7 6
v -9 8 9
v -9 8 8
v -9 8 6
v -9 12 -5
v -9 12 -7
v -9 13 -5
v -9 13 -7
v -8 4 6
v -8 4 4
v -8 8 11
v -8 8 8
v -8 9 11
v -8 9 8
v -8 10 6
v -8 10 4
v -5 10 9
v -5 10 1
v -5 12 9
v -5 12 1
v 8 4 -9
v 8 4 -12
v 8 11 -10
v 8 11 -11
v 8 12 -10
v 8 12 -11
v 8 13 11
v 8 13 6
v 8 14 10
v 8 14 6
v 8 15 11
v 8 15 10
v 8 16 -9
v 8 16 -12
v 10 4 6
v 10 4 2
v 10 15 13
v 10 15 9
v 10 17 13
v 10 17 9
v 10 21 6
v 10 21 2
v 11 10 -10
v 11 10 -11
v 11 11 -11
v 11 12 -10
v 11 12 -11
v 12 16 -5
v 12 16 -16
v 12 18 -5
v 12 18 -16
v 13 10 -11
v 13 10 -12
v 13 12 -11
v 13 12 -12
v 14 12 -10
v 14 12 -13
v 14 13 -10
v 14 13 -13
v 14 21 11
v 14 21 -3
v 14 24 11
v 14 24 -3
v 20 0 20
v 20 0 -20
v 20 4 20
v 20 4 -20
v -20 0 20
v -20 4 20
v 20 0 20
v 20 4 20
v 5 15 13
v 5 17 13
v 10 15 13
v 10 17 13
v -11 8 11
v -11 9 11
v -8 8 11
v -8 9 11
v 0 21 11
v 0 24 11
v 7 13 11
v 7 15 11
v 8 13 11
v 8 15 11
v 14 21 11
v 14 24 11
v -13 10 9
v -13 12 9
v -10 7 9
v -10 8 9
v -9 7 9
v -9 8 9
v -5 10 9
v -5 12 9
v -10 4 6
v -10 7 6
v -10 8 6
v -10 10 6
v -9 7 6
v -9 8 6
v -8 4 6
v -8 10 6
v 5 4 6
v 5 21 6
v 7 13 6
v 7 14 6
v 8 13 6
v 8 14 6
v 10 4 6
v 10 21 6
v -14 12 -2
v -14 13 -2
v -12 12 -2
v -12 13 -2
v -15 12 -3
v -15 13 -3
v -14 12 -3
v -14 13 -3
v -14 14 -3
v -12 12 -3
v -12 13 -3
v -12 14 -3
v -11 12 -3
v -11 13 -3
v -16 12 -4
v -16 13 -4
v -15 12 -4
v -15 13 -4
v -15 14 -4
v -14 13 -4
v -14 14 -4
v -12 13 -4
v -12 14 -4
v -11 12 -4
v -11 13 -4
v -11 14 -4
v -10 12 -4
v -10 13 -4
v -17 12 -5
v -17 13 -5
v -16 12 -5
v -16 13 -5
v -16 14 -5
v -15 13 -5
v -15 14 -5
v -14 4 -5
v -14 12 -5
v -14 13 -5
v -14 14 -5
v -14 15 -5
v -12 4 -5
v -12 12 -5
v -12 13 -5
v -12 14 -5
v -12 15 -5
v -11 13 -5
v -11 14 -5
v -10 12 -5
v -10 13 -5
v -10 14 -5
v -9 12 -5
v -9 13 -5
v 0 16 -5
v 0 18 -5
v 12 16 -5
v 12 18 -5
v -15 12 -7
v -15 13 -7
v -14 12 -7
v -14 13 -7
v -12 12 -7
v -12 13 -7
v -11 12 -7
v -11 13 -7
v -14 12 -8
v -14 13 -8
v -12 12 -8
v -12 13 -8
v 5 4 -9
v 5 16 -9
v 8 4 -9
v 8 16 -9
v 8 11 -10
v 8 12 -10
v 10 10 -10
v 10 11 -10
v 11 10 -10
v 11 12 -10
v 11 13 -10
v 14 12 -10
v 14 13 -10
v 11 10 -11
v 11 11 -11
v 12 11 -11
v 12 12 -11
v 13 10 -11
v 13 12 -11
v 7 14 10
v 7 15 10
v 8 14 10
v 8 15 10
v 5 15 9
v 5 17 9
v 10 15 9
v 10 17 9
v -11 8 8
v -11 9 8
v -10 8 8
v -9 8 8
v -8 8 8
v -8 9 8
v -10 4 4
v -10 10 4
v -8 4 4
v -8 10 4
v 5 4 2
v 5 21 2
v 10 4 2
v 10 21 2
v -13 10 1
v -13 12 1
v -5 10 1
v -5 12 1
v 0 21 -3
v 0 24 -3
v 14 21 -3
v 14 24 -3
v -14 12 -4
v -14 13 -4
v -12 12 -4
v -12 13 -4
v -15 12 -5
v -15 13 -5
v -14 12 -5
v -14 13 -5
v -12 12 -5
v -12 13 -5
v -11 12 -5
v -11 13 -5
v -17 12 -7
v -17 13 -7
v -16 12 -7
v -16 13 -7
v -16 14 -7
v -15 13 -7
v -15 14 -7
v -14 4 -7
v -14 12 -7
v -14 13 -7
v -14 14 -7
v -14 15 -7
v -12 4 -7
v -12 12 -7
v -12 13 -7
v -12 14 -7
v -12 15 -7
v -11 13 -7
v -11 14 -7
v -10 12 -7
v -10 13 -7
v -10 14 -7
v -9 12 -7
v -9 13 -7
v -16 12 -8
v -16 13 -8
v -15 12 -8
v -15 13 -8
v -15 14 -8
v -14 13 -8
v -14 14 -8
v -12 13 -8
v -12 14 -8
v -11 12 -8
v -11 13 -8
v -11 14 -8
v -10 12 -8
v -10 13 -8
v -15 12 -9
v -15 13 -9
v -14 12 -9
v -14 13 -9
v -14 14 -9
v -12 12 -9
v -12 13 -9
v -12 14 -9
v -11 12 -9
v -11 13 -9
v -14 12 -10
v -14 13 -10
v -12 12 -10
v -12 13 -10
v 8 11 -11
v 8 12 -11
v 10 11 -11
v 11 11 -11
v 11 12 -11
v 5 4 -12
v 5 16 -12
v 8 4 -12
v 8 16 -12
v 10 10 -12
v 10 11 -12
v 12 11 -12
v 12 12 -12
v 13 10 -12
v 13 12 -12
v 11 12 -13
v 11 13 -13
v 14 12 -13
v 14 13 -13
v 0 16 -16
v 0 18 -16
v 12 16 -16
v 12 18 -16
v -20 0 -20
v -20 4 -20
v 20 0 -20
v 20 4 -20
v -20 0 20
v 20 0 20
v -20 0 -20
v 20 0 -20
v -10 7 9
v -9 7 9
v -10 7 6
v -9 7 6
v -11 8 11
v -8 8 11
v -10 8 9
v -9 8 9
v -11 8 8
v -10 8 8
v -9 8 8
v -8 8 8
v -13 10 9
v -5 10 9
v -10 10 6
v -8 10 6
v -10 10 4
v -8 10 4
v -13 10 1
v -5 10 1
v 10 10 -10
v 11 10 -10
v 11 10 -11
v 13 10 -11
v 10 10 -12
v 13 10 -12
v 8 11 -10
v 10 11 -10
v 8 11 -11
v 10 11 -11
v -14 12 -2
v -12 12 -2
v -15 12 -3
v -14 12 -3
v -12 12 -3
v -11 12 -3
v -16 12 -4
v -15 12 -4
v -14 12 -4
v -12 12 -4
v -11 12 -4
v -10 12 -4
v -17 12 -5
v -16 12 -5
v -15 12 -5
v -14 12 -5
v -12 12 -5
v -11 12 -5
v -10 12 -5
v -9 12 -5
v -17 12 -7
v -16 12 -7
v -15 12 -7
v -14 12 -7
v -12 12 -7
v -11 12 -7
v -10 12 -7
v -9 12 -7
v -16 12 -8
v -15 12 -8
v -14 12 -8
v -12 12 -8
v -11 12 -8
v -10 12 -8
v -15 12 -9
v -14 12 -9
v -12 12 -9
v -11 12 -9
v -14 12 -10
v -12 12 -10
v 11 12 -10
v 14 12 -10
v 11 12 -11
v 12 12 -11
v 13 12 -11
v 12 12 -12
v 13 12 -12
v 11 12 -13
v 14 12 -13
v 7 13 11
v 8 13 11
v 7 13 6
v 8 13 6
v -14 13 -4
v -12 13 -4
v -15 13 -5
v -14 13 -5
v -12 13 -5
v -11 13 -5
v -15 13 -7
v -14 13 -7
v -12 13 -7
v -11 13 -7
v -14 13 -8
v -12 13 -8
v 5 15 13
v 10 15 13
v 7 15 11
v 8 15 11
v 7 15 10
v 8 15 10
v 5 15 9
v 10 15 9
v 0 16 -5
v 12 16 -5
v 5 16 -9
v 8 16 -9
v 5 16 -12
v 8 16 -12
v 0 16 -16
v 12 16 -16
v 0 21 11
v 14 21 11
v 1 21 10
v 13 21 10
v 5 21 6
v 10 21 6
v 5 21 2
v 10 21 2
v 1 21 -2
v 13 21 -2
v 0 21 -3
v 14 21 -3
v -20 4 20
v 20 4 20
v -10 4 6
v -8 4 6
v 5 4 6
v 10 4 6
v -10 4 4
v -8 4 4
v 5 4 2
v 10 4 2
v -14 4 -5
v -12 4 -5
v -14 4 -7
v -12 4 -7
v 5 4 -9
v 8 4 -9
v 5 4 -12
v 8 4 -12
v -20 4 -20
v 20 4 -20
v -10 8 8
v -9 8 8
v -10 8 6
v -9 8 6
v -11 9 11
v -8 9 11
v -11 9 8
v -8 9 8
v 10 11 -11
v 11 11 -11
v 12 11 -11
v 10 11 -12
v 12 11 -12
v -13 12 9
v -5 12 9
v -13 12 1
v -5 12 1
v 8 12 -10
v 11 12 -10
v 8 12 -11
v 11 12 -11
v -14 13 -2
v -12 13 -2
v -15 13 -3
v -14 13 -3
v -12 13 -3
v -11 13 -3
v -16 13 -4
v -15 13 -4
v -14 13 -4
v -12 13 -4
v -11 13 -4
v -10 13 -4
v -17 13 -5
v -16 13 -5
v -15 13 -5
v -11 13 -5
v -10 13 -5
v -9 13 -5
v -17 13 -7
v -16 13 -7
v -15 13 -7
v -11 13 -7
v -10 13 -7
v -9 13 -7
v -16 13 -8
v -15 13 -8
v -14 13 -8
v -12 13 -8
v -11 13 -8
v -10 13 -8
v -15 13 -9
v -14 13 -9
v -12 13 -9
v -11 13 -9
v -14 13 -10
v -12 13 -10
v 11 13 -10
v 14 13 -10
v 11 13 -13
v 14 13 -13
v 7 14 10
v 8 14 10
v 7 14 6
v 8 14 6
v -14 14 -3
v -12 14 -3
v -15 14 -4
v -14 14 -4
v -12 14 -4
v -11 14 -4
v -16 14 -5
v -15 14 -5
v -14 14 -5
v -12 14 -5
v -11 14 -5
v -10 14 -5
v -16 14 -7
v -15 14 -7
v -14 14 -7
v -12 14 -7
v -11 14 -7
v -10 14 -7
v -15 14 -8
v -14 14 -8
v -12 14 -8
v -11 14 -8
v -14 14 -9
v -12 14 -9
v -14 15 -5
v -12 15 -5
v -14 15 -7
v -12 15 -7
v 5 17 13
v 10 17 13
v 5 17 9
v 10 17 9
v 0 18 -5
v 12 18 -5
v 0 18 -16
v 12 18 -16
v 0 24 11
v 14 24 11
v 0 24 -3
v 14 24 -3

# faces
f 3/2/1 2/2/1 1/2/1
f 4/2/1 2/2/1 3/2/1
f 7/6/1 6/6/1 5/6/1
f 8/6/1 6/6/1 7/6/1
f 13/6/1 10/6/1 9/6/1
f 14/6/1 10/6/1 13/6/1
f 15/6/1 12/6/1 11/6/1
f 16/6/1 12/6/1 15/6/1
f 17/6/1 15/6/1 14/6/1
f 18/6/1 15/6/1 17/6/1
f 23/6/1 20/6/1 19/6/1
f 24/6/1 20/6/1 23/6/1
f 27/6/1 22/6/1 21/6/1
f 28/6/1 22/6/1 27/6/1
f 29/6/1 25/6/1 24/6/1
f 30/6/1 25/6/1 29/6/1
f 31/6/1 27/6/1 26/6/1
f 32/6/1 27/6/1 31/6/1
f 37/1/1 34/1/1 33/1/1
f 38/1/1 34/1/1 37/1/1
f 41/6/1 36/6/1 35/6/1
f 42/6/1 36/6/1 41/6/1
f 44/1/1 38/1/1 37/1/1
f 45/1/1 38/1/1 44/1/1
f 47/6/1 40/6/1 39/6/1
f 48/6/1 40/6/1 47/6/1
f 49/6/1 43/6/1 42/6/1
f 50/6/1 43/6/1 49/6/1
f 53/6/1 47/6/1 46/6/1
f 54/6/1 47/6/1 53/6/1
f 55/6/1 52/6/1 51/6/1
f 56/6/1 52/6/1 55/6/1
f 59/6/1 58/6/1 57/6/1
f 60/6/1 58/6/1 59/6/1
f 65/6/1 62/6/1 61/6/1
f 66/6/1 62/6/1 65/6/1
f 67/6/1 64/6/1 63/6/1
f 68/6/1 64/6/1 67/6/1
f 71/7/1 70/7/1 69/7/1
f 72/7/1 70/7/1 71/7/1
f 75/6/1 74/6/1 73/6/1
f 76/6/1 74/6/1 75/6/1
f 80/5/1 78/5/1 77/5/1
f 81/5/1 80/5/1 79/5/1
f 82/5/1 80/5/1 81/5/1
f 83/5/1 78/5/1 80/5/1
f 83/5/1 80/5/1 82/5/1
f 84/5/1 78/5/1 83/5/1
f 85/5/1 78/5/1 84/5/1
f 88/6/1 87/6/1 86/6/1
f 89/6/1 87/6/1 88/6/1
f 92/6/1 91/6/1 90/6/1
f 93/6/1 91/6/1 92/6/1
f 100/3/1 97/3/1 96/3/1
f 101/3/1 97/3/1 100/3/1
f 102/7/1 99/7/1 98/7/1
f 103/7/1 99/7/1 102/7/1
f 104/3/1 95/3/1 94/3/1
f 105/3/1 95/3/1 104/3/1
f 108/3/1 107/3/1 106/3/1
f 109/3/1 107/3/1 108/3/1
f 110/3/1 108/3/1 106/3/1
f 111/3/1 108/3/1 110/3/1
f 114/3/1 113/3/1 112/3/1
f 115/3/1 113/3/1 114/3/1
f 116/3/1 113/3/1 115/3/1
f 120/4/1 118/4/1 117/4/1
f 120/4/1 119/4/1 118/4/1
f 121/4/1 119/4/1 120/4/1
f 124/3/1 123/3/1 122/3/1
f 125/3/1 123/3/1 124/3/1
f 126/6/2 127/6/2 128/6/2
f 128/6/2 127/6/2 129/6/2
f 130/6/2 131/6/2 134/6/2
f 134/6/2 131/6/2 135/6/2
f 132/6/2 133/6/2 136/6/2
f 136/6/2 133/6/2 137/6/2
f 138/1/2 139/1/2 142/1/2
f 142/1/2 139/1/2 143/1/2
f 140/6/2 141/6/2 146/6/2
f 146/6/2 141/6/2 147/6/2
f 142/1/2 143/1/2 149/1/2
f 149/1/2 143/1/2 150/1/2
f 144/6/2 145/6/2 152/6/2
f 152/6/2 145/6/2 153/6/2
f 147/6/2 148/6/2 154/6/2
f 154/6/2 148/6/2 155/6/2
f 151/6/2 152/6/2 158/6/2
f 158/6/2 152/6/2 159/6/2
f 156/6/2 157/6/2 160/6/2
f 160/6/2 157/6/2 161/6/2
f 162/6/2 163/6/2 166/6/2
f 166/6/2 163/6/2 167/6/2
f 164/6/2 165/6/2 170/6/2
f 170/6/2 165/6/2 171/6/2
f 167/6/2 168/6/2 172/6/2
f 172/6/2 168/6/2 173/6/2
f 169/6/2 170/6/2 174/6/2
f 174/6/2 170/6/2 175/6/2
f 176/6/2 177/6/2 180/6/2
f 180/6/2 177/6/2 181/6/2
f 178/6/2 179/6/2 182/6/2
f 182/6/2 179/6/2 183/6/2
f 181/6/2 182/6/2 184/6/2
f 184/6/2 182/6/2 185/6/2
f 186/5/2 187/5/2 188/5/2
f 188/5/2 187/5/2 189/5/2
f 189/5/2 187/5/2 190/5/2
f 191/6/2 192/6/2 193/6/2
f 193/6/2 192/6/2 194/6/2
f 197/7/2 198/7/2 199/7/2
f 199/7/2 198/7/2 200/7/2
f 195/5/2 196/5/2 201/5/2
f 201/5/2 196/5/2 202/5/2
f 203/6/2 204/6/2 205/6/2
f 205/6/2 204/6/2 206/6/2
f 207/3/2 208/3/2 209/3/2
f 209/3/2 208/3/2 210/3/2
f 207/3/2 209/3/2 211/3/2
f 210/3/2 208/3/2 212/3/2
f 213/3/2 214/3/2 215/3/2
f 215/3/2 214/3/2 216/3/2
f 213/3/2 215/3/2 217/3/2
f 217/3/2 215/3/2 218/3/2
f 207/3/2 211/3/2 219/3/2
f 211/3/2 212/3/2 219/3/2
f 212/3/2 208/3/2 220/3/2
f 219/3/2 212/3/2 220/3/2
f 223/7/2 224/7/2 225/7/2
f 225/7/2 224/7/2 226/7/2
f 221/3/2 222/3/2 227/3/2
f 227/3/2 222/3/2 228/3/2
f 229/3/2 230/3/2 231/3/2
f 229/3/2 231/3/2 232/3/2
f 232/3/2 231/3/2 233/3/2
f 234/6/2 235/6/2 236/6/2
f 236/6/2 235/6/2 237/6/2
f 238/3/2 239/3/2 240/3/2
f 240/3/2 239/3/2 241/3/2
f 242/4/2 243/4/2 244/4/2
f 244/4/2 243/4/2 245/4/2
f 246/6/2 247/6/2 248/6/2
f 248/6/2 247/6/2 249/6/2
f 250/2/2 251/2/2 252/2/2
f 252/2/2 251/2/2 253/2/2
f 256/2/3 255/2/3 254/2/3
f 257/2/3 255/2/3 256/2/3
f 260/7/3 259/7/3 258/7/3
f 261/7/3 259/7/3 260/7/3
f 264/7/3 263/7/3 262/7/3
f 265/7/3 263/7/3 264/7/3
f 270/3/3 269/3/3 268/3/3
f 271/3/3 269/3/3 270/3/3
f 272/6/3 267/6/3 266/6/3
f 273/6/3 267/6/3 272/6/3
f 278/5/3 277/5/3 276/5/3
f 279/5/3 277/5/3 278/5/3
f 280/6/3 275/6/3 274/6/3
f 281/6/3 275/6/3 280/6/3
f 286/5/3 283/5/3 282/5/3
f 287/5/3 285/5/3 284/5/3
f 288/5/3 286/5/3 282/5/3
f 288/5/3 287/5/3 286/5/3
f 289/5/3 285/5/3 287/5/3
f 289/5/3 287/5/3 288/5/3
f 292/3/3 291/3/3 290/3/3
f 293/3/3 291/3/3 292/3/3
f 294/3/3 292/3/3 290/3/3
f 295/3/3 291/3/3 293/3/3
f 296/3/3 294/3/3 290/3/3
f 296/3/3 295/3/3 294/3/3
f 297/3/3 291/3/3 295/3/3
f 297/3/3 295/3/3 296/3/3
f 300/6/3 299/6/3 298/6/3
f 301/6/3 299/6/3 300/6/3
f 304/6/3 303/6/3 302/6/3
f 305/6/3 303/6/3 304/6/3
f 308/6/3 306/6/3 305/6/3
f 309/6/3 306/6/3 308/6/3
f 310/6/3 308/6/3 307/6/3
f 311/6/3 308/6/3 310/6/3
f 314/6/3 313/6/3 312/6/3
f 315/6/3 313/6/3 314/6/3
f 317/6/3 316/6/3 315/6/3
f 318/6/3 316/6/3 317/6/3
f 322/6/3 320/6/3 319/6/3
f 323/6/3 320/6/3 322/6/3
f 324/6/3 322/6/3 321/6/3
f 325/6/3 322/6/3 324/6/3
f 328/6/3 327/6/3 326/6/3
f 329/6/3 327/6/3 328/6/3
f 331/6/3 330/6/3 329/6/3
f 332/6/3 330/6/3 331/6/3
f 338/1/3 335/1/3 334/1/3
f 338/1/3 334/1/3 333/1/3
f 339/1/3 335/1/3 338/1/3
f 340/1/3 335/1/3 339/1/3
f 341/6/3 337/6/3 336/6/3
f 342/6/3 337/6/3 341/6/3
f 346/6/3 344/6/3 343/6/3
f 347/6/3 344/6/3 346/6/3
f 348/6/3 346/6/3 345/6/3
f 349/6/3 346/6/3 348/6/3
f 352/6/3 351/6/3 350/6/3
f 353/6/3 351/6/3 352/6/3
f 356/6/3 355/6/3 354/6/3
f 357/6/3 355/6/3 356/6/3
f 360/6/3 359/6/3 358/6/3
f 361/6/3 359/6/3 360/6/3
f 364/6/3 363/6/3 362/6/3
f 365/6/3 363/6/3 364/6/3
f 368/3/3 367/3/3 366/3/3
f 369/3/3 367/3/3 368/3/3
f 373/3/3 371/3/3 370/3/3
f 374/3/3 373/3/3 372/3/3
f 375/3/3 371/3/3 373/3/3
f 375/3/3 373/3/3 374/3/3
f 377/4/3 376/4/3 375/4/3
f 378/4/3 376/4/3 377/4/3
f 381/3/3 380/3/3 379/3/3
f 383/3/3 381/3/3 379/3/3
f 383/3/3 382/3/3 381/3/3
f 384/3/3 382/3/3 383/3/3
f 385/3/4 386/3/4 387/3/4
f 387/3/4 386/3/4 388/3/4
f 389/7/4 390/7/4 391/7/4
f 391/7/4 390/7/4 392/7/4
f 393/7/4 394/7/4 395/7/4
f 395/7/4 394/7/4 396/7/4
f 396/7/4 394/7/4 397/7/4
f 397/7/4 394/7/4 398/7/4
f 399/5/4 400/5/4 401/5/4
f 401/5/4 400/5/4 402/5/4
f 403/3/4 404/3/4 405/3/4
f 405/3/4 404/3/4 406/3/4
f 407/6/4 408/6/4 409/6/4
f 409/6/4 408/6/4 410/6/4
f 411/6/4 412/6/4 413/6/4
f 413/6/4 412/6/4 414/6/4
f 415/6/4 416/6/4 417/6/4
f 417/6/4 416/6/4 418/6/4
f 419/6/4 420/6/4 421/6/4
f 421/6/4 420/6/4 422/6/4
f 423/6/4 424/6/4 425/6/4
f 425/6/4 424/6/4 426/6/4
f 427/6/4 428/6/4 429/6/4
f 429/6/4 428/6/4 430/6/4
f 430/6/4 431/6/4 432/6/4
f 432/6/4 431/6/4 433/6/4
f 435/1/4 436/1/4 439/1/4
f 434/1/4 435/1/4 439/1/4
f 439/1/4 436/1/4 440/1/4
f 440/1/4 436/1/4 441/1/4
f 437/6/4 438/6/4 442/6/4
f 442/6/4 438/6/4 443/6/4
f 444/6/4 445/6/4 447/6/4
f 447/6/4 445/6/4 448/6/4
f 446/6/4 447/6/4 449/6/4
f 449/6/4 447/6/4 450/6/4
f 451/6/4 452/6/4 453/6/4
f 453/6/4 452/6/4 454/6/4
f 454/6/4 455/6/4 456/6/4
f 456/6/4 455/6/4 457/6/4
f 458/6/4 459/6/4 461/6/4
f 461/6/4 459/6/4 462/6/4
f 460/6/4 461/6/4 463/6/4
f 463/6/4 461/6/4 464/6/4
f 465/6/4 466/6/4 467/6/4
f 467/6/4 466/6/4 468/6/4
f 468/6/4 469/6/4 471/6/4
f 471/6/4 469/6/4 472/6/4
f 470/6/4 471/6/4 473/6/4
f 473/6/4 471/6/4 474/6/4
f 475/6/4 476/6/4 477/6/4
f 477/6/4 476/6/4 478/6/4
f 479/3/4 480/3/4 481/3/4
f 481/3/4 480/3/4 482/3/4
f 482/3/4 480/3/4 483/3/4
f 484/3/4 485/3/4 486/3/4
f 486/3/4 485/3/4 487/3/4
f 488/3/4 489/3/4 490/3/4
f 488/3/4 490/3/4 492/3/4
f 490/3/4 491/3/4 492/3/4
f 492/3/4 491/3/4 493/3/4
f 494/4/4 495/4/4 496/4/4
f 496/4/4 495/4/4 497/4/4
f 498/6/4 499/6/4 500/6/4
f 500/6/4 499/6/4 501/6/4
f 502/2/4 503/2/4 504/2/4
f 504/2/4 503/2/4 505/2/4
f 508/2/5 507/2/5 506/2/5
f 509/2/5 507/2/5 508/2/5
f 512/5/5 511/5/5 510/5/5
f 513/5/5 511/5/5 512/5/5
f 516/7/5 515/7/5 514/7/5
f 517/7/5 515/7/5 516/7/5
f 518/7/5 516/7/5 514/7/5
f 519/7/5 516/7/5 518/7/5
f 520/7/5 515/7/5 517/7/5
f 521/7/5 515/7/5 520/7/5
f 524/6/5 523/6/5 522/6/5
f 525/6/5 523/6/5 524/6/5
f 526/6/5 524/6/5 522/6/5
f 527/6/5 523/6/5 525/6/5
f 528/6/5 526/6/5 522/6/5
f 528/6/5 527/6/5 526/6/5
f 529/6/5 523/6/5 527/6/5
f 529/6/5 527/6/5 528/6/5
f 532/3/5 531/3/5 530/3/5
f 534/3/5 532/3/5 530/3/5
f 534/3/5 533/3/5 532/3/5
f 535/3/5 533/3/5 534/3/5
f 538/3/5 537/3/5 536/3/5
f 539/3/5 537/3/5 538/3/5
f 543/6/5 541/6/5 540/6/5
f 544/6/5 541/6/5 543/6/5
f 547/6/5 543/6/5 542/6/5
f 547/6/5 545/6/5 544/6/5
f 547/6/5 544/6/5 543/6/5
f 548/6/5 545/6/5 547/6/5
f 549/6/5 545/6/5 548/6/5
f 550/6/5 545/6/5 549/6/5
f 553/6/5 547/6/5 546/6/5
f 553/6/5 548/6/5 547/6/5
f 554/6/5 548/6/5 553/6/5
f 555/6/5 548/6/5 554/6/5
f 556/6/5 550/6/5 549/6/5
f 556/6/5 551/6/5 550/6/5
f 557/6/5 551/6/5 556/6/5
f 558/6/5 551/6/5 557/6/5
f 560/6/5 554/6/5 553/6/5
f 560/6/5 553/6/5 552/6/5
f 561/6/5 554/6/5 560/6/5
f 562/6/5 554/6/5 561/6/5
f 565/6/5 559/6/5 558/6/5
f 565/6/5 558/6/5 557/6/5
f 566/6/5 559/6/5 565/6/5
f 567/6/5 559/6/5 566/6/5
f 568/6/5 563/6/5 562/6/5
f 568/6/5 562/6/5 561/6/5
f 569/6/5 563/6/5 568/6/5
f 570/6/5 563/6/5 569/6/5
f 571/6/5 566/6/5 565/6/5
f 571/6/5 565/6/5 564/6/5
f 572/6/5 566/6/5 571/6/5
f 573/6/5 566/6/5 572/6/5
f 574/6/5 570/6/5 569/6/5
f 574/6/5 572/6/5 571/6/5
f 574/6/5 571/6/5 570/6/5
f 575/6/5 572/6/5 574/6/5
f 576/6/5 572/6/5 575/6/5
f 577/6/5 572/6/5 576/6/5
f 578/6/5 576/6/5 575/6/5
f 579/6/5 576/6/5 578/6/5
f 582/4/5 581/4/5 580/4/5
f 583/4/5 581/4/5 582/4/5
f 584/4/5 581/4/5 583/4/5
f 585/4/5 583/4/5 582/4/5
f 586/4/5 581/4/5 584/4/5
f 587/4/5 585/4/5 582/4/5
f 587/4/5 586/4/5 585/4/5
f 588/4/5 581/4/5 586/4/5
f 588/4/5 586/4/5 587/4/5
f 591/3/5 590/3/5 589/3/5
f 592/3/5 590/3/5 591/3/5
f 596/6/5 594/6/5 593/6/5
f 597/6/5 594/6/5 596/6/5
f 599/6/5 596/6/5 595/6/5
f 600/6/5 596/6/5 599/6/5
f 601/6/5 598/6/5 597/6/5
f 602/6/5 598/6/5 601/6/5
f 603/6/5 601/6/5 600/6/5
f 604/6/5 601/6/5 603/6/5
f 607/7/5 606/7/5 605/7/5
f 608/7/5 606/7/5 607/7/5
f 609/7/5 607/7/5 605/7/5
f 610/7/5 606/7/5 608/7/5
f 611/7/5 609/7/5 605/7/5
f 611/7/5 610/7/5 609/7/5
f 612/7/5 606/7/5 610/7/5
f 612/7/5 610/7/5 611/7/5
f 615/6/5 614/6/5 613/6/5
f 616/6/5 614/6/5 615/6/5
f 617/6/5 615/6/5 613/6/5
f 618/6/5 614/6/5 616/6/5
f 619/6/5 617/6/5 613/6/5
f 619/6/5 618/6/5 617/6/5
f 620/6/5 614/6/5 618/6/5
f 620/6/5 618/6/5 619/6/5
f 623/6/5 622/6/5 621/6/5
f 624/6/5 622/6/5 623/6/5
f 625/7/5 624/7/5 623/7/5
f 626/7/5 624/7/5 625/7/5
f 627/7/5 625/7/5 623/7/5
f 628/7/5 624/7/5 626/7/5
f 629/6/5 623/6/5 621/6/5
f 629/7/5 628/7/5 627/7/5
f 629/7/5 627/7/5 623/7/5
f 630/7/5 624/7/5 628/7/5
f 630/7/5 628/7/5 629/7/5
f 630/6/5 622/6/5 624/6/5
f 631/6/5 629/6/5 621/6/5
f 631/6/5 630/6/5 629/6/5
f 632/6/5 622/6/5 630/6/5
f 632/6/5 630/6/5 631/6/5
f 633/2/6 634/2/6 635/2/6
f 635/2/6 634/2/6 636/2/6
f 636/2/6 634/2/6 637/2/6
f 637/2/6 634/2/6 638/2/6
f 633/2/6 635/2/6 639/2/6
f 636/2/6 637/2/6 640/2/6
f 640/2/6 637/2/6 641/2/6
f 639/2/6 640/2/6 641/2/6
f 638/2/6 634/2/6 642/2/6
f 639/2/6 641/2/6 643/2/6
f 641/2/6 642/2/6 643/2/6
f 633/2/6 639/2/6 643/2/6
f 643/2/6 642/2/6 644/2/6
f 633/2/6 643/2/6 645/2/6
f 644/2/6 642/2/6 646/2/6
f 646/2/6 642/2/6 647/2/6
f 645/2/6 646/2/6 647/2/6
f 647/2/6 642/2/6 648/2/6
f 645/2/6 647/2/6 649/2/6
f 648/2/6 642/2/6 650/2/6
f 633/2/6 645/2/6 651/2/6
f 649/2/6 650/2/6 651/2/6
f 645/2/6 649/2/6 651/2/6
f 642/2/6 634/2/6 652/2/6
f 651/2/6 650/2/6 652/2/6
f 650/2/6 642/2/6 652/2/6
f 653/5/6 654/5/6 655/5/6
f 655/5/6 654/5/6 656/5/6
f 657/7/6 658/7/6 659/7/6
f 659/7/6 658/7/6 660/7/6
f 661/3/6 662/3/6 664/3/6
f 662/3/6 663/3/6 664/3/6
f 664/3/6 663/3/6 665/3/6
f 666/6/6 667/6/6 668/6/6
f 668/6/6 667/6/6 669/6/6
f 670/3/6 671/3/6 672/3/6
f 672/3/6 671/3/6 673/3/6
f 674/6/6 675/6/6 677/6/6
f 677/6/6 675/6/6 678/6/6
f 676/6/6 677/6/6 681/6/6
f 681/6/6 677/6/6 682/6/6
f 678/6/6 679/6/6 683/6/6
f 683/6/6 679/6/6 684/6/6
f 680/6/6 681/6/6 687/6/6
f 687/6/6 681/6/6 688/6/6
f 684/6/6 685/6/6 689/6/6
f 689/6/6 685/6/6 690/6/6
f 686/6/6 687/6/6 692/6/6
f 692/6/6 687/6/6 693/6/6
f 690/6/6 691/6/6 696/6/6
f 696/6/6 691/6/6 697/6/6
f 693/6/6 694/6/6 698/6/6
f 698/6/6 694/6/6 699/6/6
f 695/6/6 696/6/6 702/6/6
f 702/6/6 696/6/6 703/6/6
f 699/6/6 700/6/6 704/6/6
f 704/6/6 700/6/6 705/6/6
f 701/6/6 702/6/6 706/6/6
f 706/6/6 702/6/6 707/6/6
f 705/6/6 706/6/6 708/6/6
f 708/6/6 706/6/6 709/6/6
f 710/4/6 711/4/6 712/4/6
f 712/4/6 711/4/6 713/4/6
f 714/3/6 715/3/6 716/3/6
f 716/3/6 715/3/6 717/3/6
f 718/6/6 719/6/6 721/6/6
f 721/6/6 719/6/6 722/6/6
f 720/6/6 721/6/6 725/6/6
f 722/6/6 723/6/6 725/6/6
f 721/6/6 722/6/6 725/6/6
f 725/6/6 723/6/6 726/6/6
f 726/6/6 723/6/6 727/6/6
f 727/6/6 723/6/6 728/6/6
f 724/6/6 725/6/6 730/6/6
f 725/6/6 726/6/6 730/6/6
f 730/6/6 726/6/6 731/6/6
f 731/6/6 726/6/6 732/6/6
f 728/6/6 729/6/6 733/6/6
f 727/6/6 728/6/6 733/6/6
f 733/6/6 729/6/6 734/6/6
f 734/6/6 729/6/6 735/6/6
f 731/6/6 732/6/6 736/6/6
f 733/6/6 734/6/6 736/6/6
f 732/6/6 733/6/6 736/6/6
f 736/6/6 734/6/6 737/6/6
f 737/6/6 734/6/6 738/6/6
f 738/6/6 734/6/6 739/6/6
f 737/6/6 738/6/6 740/6/6
f 740/6/6 738/6/6 741/6/6
f 742/6/6 743/6/6 744/6/6
f 744/6/6 743/6/6 745/6/6
f 746/7/6 747/7/6 748/7/6
f 748/7/6 747/7/6 749/7/6
f 750/6/6 751/6/6 752/6/6
f 752/6/6 751/6/6 753/6/6
f 754/6/6 755/6/6 756/6/6
f 756/6/6 755/6/6 757/6/6
